<svg xmlns="http://www.w3.org/2000/svg" width="21" height="25" viewBox="0 0 21 25">
    <g fill="none">
        <path fill="#FFF" stroke="#000" stroke-width="1.429" d="M19.064 22.998L0.35 22.998 0.35 0.703 19.064 0.703z" transform="translate(1 1)"/>
        <path fill="#000" d="M2.714 14.053H16.698999999999998V16.197000000000003H2.714zM2.714 17.867H16.698999999999998V20.011000000000003H2.714zM6.599 9.235c-.946 0-1.583-.656-1.583-1.688 0-1.033.637-1.689 1.583-1.689.608 0 1.08.29 1.476.791l1.438-1.283c-.666-.868-1.708-1.35-3.03-1.35-2.171 0-3.763 1.456-3.763 3.53 0 2.075 1.592 3.532 3.763 3.532 1.322 0 2.364-.482 3.03-1.35L8.075 8.443c-.395.502-.868.791-1.476.791zM15.148 4.169L13.498 8.116 11.887 4.169 9.436 4.169 12.292 10.924 14.531 10.924 17.387 4.169z" transform="translate(1 1)"/>
    </g>
</svg>
