<svg xmlns="http://www.w3.org/2000/svg" width="20" height="20" viewBox="0 0 20 20">
    <path d="M6.25 16.523H3.516V7.695H6.25v8.828zm.273-11.64c0-.884-.717-1.602-1.6-1.602-.887 0-1.603.718-1.603 1.602 0 .884.716 1.601 1.602 1.601.884 0 1.601-.717 1.601-1.601zm9.961 6.784c0-2.37-.5-4.128-3.269-4.128-1.33 0-2.223.665-2.587 1.357h-.003v-1.2H7.969v8.827h2.656V12.14c0-1.148.292-2.26 1.715-2.26 1.404 0 1.45 1.313 1.45 2.333v4.31h2.694v-4.856zM20 17.657V2.343C20 1.05 18.949 0 17.656 0H2.344C1.05 0 0 1.051 0 2.344v15.312C0 18.95 1.051 20 2.344 20h15.312C18.95 20 20 18.949 20 17.656zM17.656 1.561c.431 0 .782.351.782.782v15.312c0 .431-.351.782-.782.782H2.344c-.431 0-.781-.351-.781-.782V2.344c0-.431.35-.781.78-.781h15.313z"/>
</svg>
