<svg xmlns="http://www.w3.org/2000/svg" width="20" height="27" viewBox="0 0 20 27">
    <g>
        <path d="M19.467 6.845c-.932-3.009-3.35-5.448-6.314-6.365C9.998-.497 6.71.033 4.13 1.935c-1.236.911-2.262 2.113-2.967 3.476C.434 6.819.05 8.405.05 9.996c0 2.17.686 4.234 1.985 5.966l7.966 10.16 7.956-10.147.01-.013c1.944-2.592 2.49-5.915 1.5-9.117zm-2.72 8.192L10 23.642l-6.746-8.605C2.16 13.573 1.581 11.83 1.581 9.996c0-2.68 1.292-5.233 3.456-6.829 2.185-1.61 4.978-2.056 7.664-1.225 2.487.77 4.52 2.823 5.303 5.356.843 2.724.385 5.545-1.257 7.739z"/>
        <path d="M10.001 4.638c-2.955 0-5.358 2.403-5.358 5.358 0 2.955 2.403 5.358 5.358 5.358 2.955 0 5.358-2.403 5.358-5.358 0-2.955-2.403-5.359-5.358-5.359zm0 9.185c-2.11 0-3.827-1.717-3.827-3.827S7.89 6.168 10 6.168s3.828 1.717 3.828 3.828c0 2.11-1.718 3.827-3.828 3.827z"/>
    </g>
</svg>
