<svg xmlns="http://www.w3.org/2000/svg" width="30" height="33" viewBox="0 0 30 33">
    <g fill="#717171">
        <path d="M26.527 10.378H20.76c-.637 0-1.153.516-1.153 1.153s.516 1.153 1.153 1.153h5.766c.637 0 1.153.517 1.153 1.154v14.99c0 .638-.516 1.154-1.153 1.154H3.464c-.637 0-1.153-.516-1.153-1.153V13.838c0-.637.516-1.154 1.153-1.154H9.23c.636 0 1.153-.516 1.153-1.153s-.517-1.153-1.153-1.153H3.464c-1.91 0-3.46 1.549-3.46 3.46v14.99c0 1.911 1.55 3.46 3.46 3.46h23.063c1.91 0 3.46-1.549 3.46-3.46v-14.99c0-1.911-1.55-3.46-3.46-3.46z"/>
        <path d="M21.576 6.103L15.811.338c-.45-.45-1.18-.45-1.63 0L8.413 6.103c-.442.458-.43 1.188.029 1.63.447.433 1.155.433 1.602 0l3.797-3.796v19.126c0 .637.517 1.153 1.153 1.153.637 0 1.154-.516 1.154-1.153V3.937l3.797 3.797c.458.442 1.188.43 1.63-.028.432-.447.432-1.156 0-1.603z"/>
    </g>
</svg>
