<svg xmlns="http://www.w3.org/2000/svg" width="20" height="20" viewBox="0 0 20 20">
    <path d="M18.303 1.615C17.224.558 15.794-.015 14.274 0c-1.52.016-2.938.618-3.995 1.697l-3.11 3.175c-.329.335-.607.7-.835 1.088-.746.339-.96.485-1.608 1.148l-3.111 3.175C.558 11.36-.015 12.793 0 14.312c.016 1.52.618 2.938 1.697 3.995 1.064 1.043 2.472 1.615 3.969 1.615h.06c1.52-.016 2.938-.619 3.995-1.697l3.11-3.175c.327-.333.603-.696.83-1.08.745-.323.953-.481 1.614-1.156l3.11-3.175C19.442 8.561 20.015 7.13 20 5.61c-.016-1.52-.618-2.938-1.697-3.995zM7.25 12.896c.424.415.876.744 1.368.995L6.89 15.656c-.344.351-.808.548-1.305.553-.495.006-.964-.182-1.316-.527-.351-.344-.548-.808-.553-1.305-.005-.497.182-.964.528-1.317l1.814-1.866c.282.62.68 1.198 1.193 1.702zm1.636 4.51c-.838.856-1.965 1.334-3.172 1.347-1.206.012-2.343-.443-3.199-1.281-.855-.838-1.333-1.965-1.346-3.172-.012-1.208.443-2.344 1.281-3.2l3.11-3.174.077-.078c-.122.69-.116 1.396.018 2.083l-2.248 2.312c-.564.575-.87 1.337-.86 2.146.007.81.328 1.565.903 2.128.567.556 1.317.861 2.114.861h.032c.81-.008 1.565-.33 2.128-.904l3.316-3.384c1.725-1.84.697-4.486-1.496-5.118.112-.22.788-.859.964-1.05 3.087 1.3 3.598 5.175 1.489 7.31l-3.11 3.175zm.53-8.236c.641.242 1.223.827 1.3 1.566-.73-.076-1.387-.853-1.44-1.621.08.028.127.05.14.055zm3.334-2.144c-.403-.395-.87-.728-1.375-.988l1.736-1.772c.344-.351.808-.548 1.305-.553.496-.005.964.182 1.316.527.351.344.548.808.553 1.305.005.497-.182.964-.528 1.317l-1.814 1.866c-.282-.62-.68-1.198-1.193-1.702zm4.8 1.795l-3.11 3.175-.077.078c.122-.69.116-1.396-.018-2.083l2.248-2.312c.564-.575.87-1.337.86-2.146-.007-.81-.328-1.565-.903-2.128-.575-.564-1.337-.869-2.146-.86-.81.007-1.565.329-2.128.903L8.96 6.832c-1.7 1.73-.72 4.659 1.535 5.052-.127.274-.799.893-1.007 1.12-.523-.209-.98-.513-1.42-.943-.855-.838-1.333-1.965-1.345-3.172-.008-.78.178-1.528.537-2.192l.016-.029c.194-.354.438-.683.727-.978l3.111-3.175c.838-.855 1.965-1.333 3.172-1.346 1.207-.011 2.343.443 3.199 1.281.856.838 1.333 1.965 1.346 3.172.012 1.208-.443 2.344-1.281 3.2z"/>
</svg>
