<svg height="75" viewBox="0 0 70 75" width="70" xmlns="http://www.w3.org/2000/svg"><path d="m8.67686323 22.75c-.00811303.1345374-.03265237.2647759-.04811048.3978804l-.01318781.2027018v32.4156056c0 5.5321848 4.53649026 10.0517065 10.17370446 10.2008205l.28757.0037992h24.0000837v1.800867c0 3.5651201-2.9069531 6.4770294-6.5315708 6.5993266l-.2373831.0039989h-29.53856455c-3.65478589 0-6.63993215-2.8360557-6.76530515-6.3717657l-.0040995-.2315598v-38.418349c0-3.5651201 2.90738486-6.4770294 6.53202095-6.5993266l.2373837-.0039989zm51.89894307-22.75c5.0564367 0 9.1714308 3.9256276 9.3142603 8.82250252l.0038344.26324489v44.60176989c0 4.9300258-4.0262847 8.9421451-9.048132 9.0814038l-.2699627.0037386h-38.9687217c-5.0564367 0-9.1714309-3.9256276-9.3142603-8.8219288l-.0038344-.2632136v-44.60176989c0-4.93062024 4.0262847-8.94274995 9.048132-9.08200885l.2699627-.00373856zm-6.7773039 42.9496508h-25.4141139c-1.402864 0-2.5414114 1.1100837-2.5414114 2.4778761 0 1.3130807 1.0492852 2.3886571 2.3743924 2.4726023l.167019.0052738h25.4141139c1.402864 0 2.5414114-1.1100837 2.5414114-2.4778761s-1.1385474-2.4778761-2.5414114-2.4778761zm0-9.9115044h-25.4141139c-1.402864 0-2.5414114 1.1100837-2.5414114 2.4778761 0 1.3130807 1.0492852 2.3886571 2.3743924 2.4726023l.167019.0052738h25.4141139c1.402864 0 2.5414114-1.1100837 2.5414114-2.4778761s-1.1385474-2.4778761-2.5414114-2.4778761zm1.4944028-9.9115044h-10.4700854c-.5779508 0-1.0470086 1.1100837-1.0470086 2.4778761 0 1.3026594.4254493 2.3715695.9652238 2.4704165l.0817848.0074596h10.4700854c.5779508 0 1.0470086-1.1100837 1.0470086-2.4778761s-.4690578-2.4778761-1.0470086-2.4778761zm-21.9141718-10.001642c-4.2129413 0-7.6282051 3.3298822-7.6282051 7.4375s3.4152638 7.4375 7.6282051 7.4375c4.2129414 0 7.6282052-3.3298822 7.6282052-7.4375s-3.4152638-7.4375-7.6282052-7.4375z" fill="#fff"/></svg>