<?xml version="1.0" encoding="UTF-8"?>
<svg width="70px" height="70px" viewBox="0 0 70 70" version="1.1" xmlns="http://www.w3.org/2000/svg" xmlns:xlink="http://www.w3.org/1999/xlink">
    <title>Combined Shape</title>
    <g id="Symbols" stroke="none" stroke-width="1" fill="none" fill-rule="evenodd">
        <g id="Cloud" fill="#FFFFFF" fill-rule="nonzero">
            <path d="M28.4375,4.51171875 C32.5325,4.51171875 36.3613086,6.49742188 38.7876562,9.73533203 C42.0377344,7.09912109 46.1145508,5.62529297 50.3125,5.62529297 C60.489707,5.62529297 68.7695312,14.0389648 68.7695312,24.3806445 C68.7695312,28.8151172 67.2768359,32.991875 64.5287891,36.3458594 C68.0276953,40.0722656 70,44.9425977 70,49.9943555 C70,55.2942578 67.9466211,60.3034961 64.2180273,64.099082 C60.48,67.904375 55.541582,70 50.3125,70 C43.5950977,70 37.359082,66.3642383 33.8013867,60.6483008 C30.9695312,64.304707 26.6080664,66.5221484 21.875,66.5221484 C13.5069922,66.5221484 6.69921875,59.6073242 6.69921875,51.107793 C6.69921875,49.1955078 7.0503125,47.3012695 7.72460938,45.5329492 C5.75832031,44.38875 4.05849609,42.8175781 2.73970703,40.9119922 C0.947324219,38.3224023 0,35.3014648 0,32.1760742 C0,23.676543 6.86916016,16.7617188 15.3125,16.7617188 C15.3689648,16.7617188 15.4251563,16.7621289 15.4816211,16.7626758 C15.9560352,9.92632813 21.5857031,4.51171875 28.4375,4.51171875 Z M6.42578125,0 C9.97464224,0 12.8515625,2.87692026 12.8515625,6.42578125 C12.8515625,9.97464224 9.97464224,12.8515625 6.42578125,12.8515625 C2.87692026,12.8515625 0,9.97464224 0,6.42578125 C0,2.87692026 2.87692026,0 6.42578125,0 Z" id="Combined-Shape"></path>
        </g>
    </g>
</svg>