<?xml version="1.0" encoding="UTF-8"?>
<svg width="70px" height="70px" viewBox="0 0 70 70" version="1.1" xmlns="http://www.w3.org/2000/svg" xmlns:xlink="http://www.w3.org/1999/xlink">
    <title>Combined Shape</title>
    <g id="Symbols" stroke="none" stroke-width="1" fill="none" fill-rule="evenodd">
        <g id="Maintenance" fill="#FFFFFF" fill-rule="nonzero">
            <path d="M48.125,43.75 C52.49125,43.75 56.5716211,45.9753711 59.00125,49.62125 C59.2607422,49.5980078 59.52625,49.5833789 59.7916211,49.5833789 C65.4208789,49.5833789 70,54.1623633 70,59.7916211 C70,65.4208789 65.4208789,70 59.7917578,70 L59.7917578,70 L36.4583789,70 C32.4392578,70 29.1667578,66.7275 29.1667578,62.7083789 C29.1667578,59.1646289 31.71,56.20125 35.0671289,55.5508789 C35.7321289,48.9328711 41.335,43.75 48.125,43.75 Z M0.7525,52.4972656 C1.21337891,52.2376367 1.77912109,52.2551367 2.23125,52.5351367 C7.30625,55.7026367 15.70625,57.7822656 25.2728711,58.2401367 C25.7133789,58.2605078 26.1216211,58.4792578 26.38125,58.8380078 C26.6407422,59.19375 26.7253711,59.64875 26.6116211,60.0746289 C26.3725,60.9671289 26.25,61.85375 26.25,62.7083789 C26.25,64.2425 26.6291211,65.77375 27.3816211,67.2586523 C27.6119922,67.7224023 27.5828711,68.2706445 27.3028711,68.7052734 C27.0344922,69.1222656 26.5707422,69.3731445 26.0778711,69.3731445 L26.0778711,69.3731445 L26.0166211,69.3731445 C13.09,68.8247656 0.00287109375,64.5460156 0.00287109375,57.4293945 L0.00287109375,57.4293945 L0.00287109375,53.7718945 C0.00287109375,53.2410156 0.28875,52.7538867 0.7525,52.4972656 Z M0.7525,37.9136133 C1.21337891,37.6568555 1.77912109,37.6686133 2.23125,37.9514844 C8.05287109,41.5827344 18.12125,43.7498633 29.1666211,43.7498633 C30.9953711,43.7498633 32.9757422,43.6682422 35.2216211,43.5019922 C35.8166211,43.4553711 36.3853711,43.7819922 36.645,44.3244922 C36.9046289,44.8669922 36.8055078,45.5116211 36.3971289,45.9519922 C34.6208789,47.85375 33.3228711,50.1725 32.64625,52.6603711 C32.5383789,53.0569922 32.2641211,53.3925 31.89375,53.5791211 C31.14125,53.9583789 30.415,54.45125 29.7383789,55.04625 C29.4730078,55.2825 29.1317578,55.4108789 28.7758789,55.4108789 L28.7758789,55.4108789 C11.55875,55.32625 1.31450406e-13,50.0675 1.31450406e-13,45.2083789 L1.31450406e-13,45.2083789 L1.31450406e-13,39.19125 C1.31450406e-13,38.6603711 0.291621094,38.1703711 0.7525,37.9136133 Z M0.805,22.0994922 C1.29787109,21.8516211 1.89,21.9041211 2.33037109,22.2366211 C8.13462891,26.5766211 18.165,29.1667578 29.1666211,29.1667578 C40.1682422,29.1667578 50.19875,26.5767578 56.0028711,22.2367578 C56.4432422,21.9071289 57.0353711,21.8575 57.5282422,22.0996289 C58.0211133,22.3475 58.3332422,22.8521289 58.3332422,23.4033789 L58.3332422,23.4033789 L58.3332422,30.625 C58.3332422,35.5542578 46.6141211,40.8333789 29.1666211,40.8333789 C11.7191211,40.8333789 1.66977543e-13,35.5541211 1.66977543e-13,30.625 L1.66977543e-13,30.625 L1.66977543e-13,23.4033789 C1.66977543e-13,22.8521289 0.312128906,22.3475 0.805,22.0994922 Z M29.1666211,0 C45.5203711,0 58.3332422,5.76625 58.3332422,13.125 C58.3332422,20.48375 45.5203711,26.25 29.1666211,26.25 C12.8128711,26.25 1.66977543e-13,20.48375 1.66977543e-13,13.125 C1.66977543e-13,5.76625 12.8128711,0 29.1666211,0 Z" id="Combined-Shape"></path>
        </g>
    </g>
</svg>