<svg xmlns="http://www.w3.org/2000/svg" xmlns:xlink="http://www.w3.org/1999/xlink" width="1680" height="440" viewBox="0 0 1680 440">
    <defs>
        <path id="z28d6klhua" d="M0 0H1680V440H0z"/>
    </defs>
    <g fill="none" fill-rule="evenodd">
        <g>
            <g>
                <path fill="#553385" d="M0 1.068H1680V535.182H0z" transform="translate(0 -13.75)"/>
                <path fill="#7B52AB" d="M1680 0h-355.811c-7.258 108.175-57.937 361.723-216.342 276.652-155.275-83.392-216.234 133.375-137.421 257.462h333.031L1680 535.182V0z" transform="translate(0 -13.75)"/>
                <path fill="#9768D1" d="M1680 417.84c-28.022 104.313-325.657-275.978-409 117.505h409V417.84z" transform="translate(0 -13.75)"/>
                <path fill="#36185E" d="M638.13 1.068H0v263.318c40.828 40.94 574.7-8.92 638.13-263.318z" transform="translate(0 -13.75)"/>
                <path fill="#7B52AB" d="M318.982 192.974c-60.541-84.048-206.35 74.185-247.24 33.21C41.04 195.416 37.5 80.728 86.787 0H0v534.114c0 .712 64.178.712 192.533 0 21.801-13.51 41.805-30.145 59.614-48.877 77.896-81.937 113.723-204.116 73.42-281.562-2.057-3.953-4.265-7.481-6.585-10.701z" transform="translate(0 -13.75)"/>
                <path fill="#9768D1" d="M0 535.182h151.346C161.44 363.558 60.292 369.045 0 300.172v235.01zM331 1.068c30.205 72.316 143.83 100.328 187 0H331zM1247.867 535.182c25.642-206.75-189.031-165.27-153.99 0h153.99z" transform="translate(0 -13.75)"/>
                <path fill="#36185E" d="M1150 1.068c19.964 102.201 113.171 102.201 172.553 84.985 58.555-16.976 115.926-43.8 171.911 36.723 52.115 74.958 2.086 214.277 42.587 299.06 8.962 18.761 22.356 34.856 42.272 46.987 36.736 22.373 65.777 13.323 100.641-25.056V1.068H1150z" transform="translate(0 -13.75)"/>
            </g>
        </g>
    </g>
</svg>
