<svg width="112" height="46" viewBox="0 0 112 46" fill="none" xmlns="http://www.w3.org/2000/svg">
    <path fill-rule="evenodd" clip-rule="evenodd" d="M99.8705 7.514H111.669V0.68H99.8705V7.514ZM111.67 35.184V37.184V36.184V35.184ZM111.669 34.184V33.184L111.67 31.077V9.956H93.5225L88.5305 26.896L82.8345 9.854H72.6495L66.9525 26.896L61.5 10L48.5 9.854L44.6565 26.896L39.5 9.854H27.5645L23.0785 26.896L18.1895 9.921H0.00449575V20.599H9.1915L17.2805 45.499H27.5645L33.7665 27.954L39.9665 45.5H50.2545L55.7045 28.72L61.1545 45.5H71.4405L77.6415 27.954L83.8435 45.5H94.1285L99.8715 27.817V45.247H111.67V38.684L111.669 37.684L111.67 35.684L111.669 34.684V34.184Z" fill="white"/>
</svg>